<svg width="20" height="22" viewBox="0 0 20 22" fill="none" xmlns="http://www.w3.org/2000/svg">
<path d="M18.5423 14.2675L19.7443 14.9885C19.8185 15.0328 19.8799 15.0957 19.9225 15.1709C19.9651 15.2461 19.9875 15.331 19.9875 15.4175C19.9875 15.5039 19.9651 15.5888 19.9225 15.664C19.8799 15.7392 19.8185 15.8021 19.7443 15.8465L10.9743 21.1085C10.8188 21.2019 10.6408 21.2513 10.4593 21.2513C10.2779 21.2513 10.0999 21.2019 9.94433 21.1085L1.17433 15.8465C1.10017 15.8021 1.03879 15.7392 0.996174 15.664C0.953555 15.5888 0.931152 15.5039 0.931152 15.4175C0.931152 15.331 0.953555 15.2461 0.996174 15.1709C1.03879 15.0957 1.10017 15.0328 1.17433 14.9885L2.37633 14.2675L10.4593 19.1175L18.5423 14.2675ZM18.5423 9.56745L19.7443 10.2885C19.8185 10.3328 19.8799 10.3957 19.9225 10.4709C19.9651 10.5461 19.9875 10.631 19.9875 10.7175C19.9875 10.8039 19.9651 10.8888 19.9225 10.964C19.8799 11.0392 19.8185 11.1021 19.7443 11.1465L10.4593 16.7175L1.17433 11.1465C1.10017 11.1021 1.03879 11.0392 0.996174 10.964C0.953555 10.8888 0.931152 10.8039 0.931152 10.7175C0.931152 10.631 0.953555 10.5461 0.996174 10.4709C1.03879 10.3957 1.10017 10.3328 1.17433 10.2885L2.37633 9.56745L10.4593 14.4175L18.5423 9.56745ZM10.9733 0.376452L19.7443 5.63845C19.8185 5.68285 19.8799 5.7457 19.9225 5.82089C19.9651 5.89608 19.9875 5.98103 19.9875 6.06745C19.9875 6.15388 19.9651 6.23883 19.9225 6.31402C19.8799 6.3892 19.8185 6.45206 19.7443 6.49645L10.4593 12.0675L1.17433 6.49645C1.10017 6.45206 1.03879 6.3892 0.996174 6.31402C0.953555 6.23883 0.931152 6.15388 0.931152 6.06745C0.931152 5.98103 0.953555 5.89608 0.996174 5.82089C1.03879 5.7457 1.10017 5.68285 1.17433 5.63845L9.94433 0.376452C10.0999 0.283009 10.2779 0.233643 10.4593 0.233643C10.6408 0.233643 10.8188 0.283009 10.9743 0.376452H10.9733ZM10.4593 2.39945L4.34633 6.06745L10.4593 9.73545L16.5723 6.06745L10.4593 2.39945Z" fill="#1F4173"/>
</svg>
