<svg width="20" height="22" viewBox="0 0 20 22" fill="none" xmlns="http://www.w3.org/2000/svg">
<path d="M17.9873 14.525L19.1893 15.246C19.2634 15.2904 19.3248 15.3533 19.3674 15.4285C19.41 15.5036 19.4324 15.5886 19.4324 15.675C19.4324 15.7614 19.41 15.8464 19.3674 15.9216C19.3248 15.9968 19.2634 16.0596 19.1893 16.104L10.4193 21.366C10.2637 21.4595 10.0857 21.5088 9.90427 21.5088C9.72283 21.5088 9.54481 21.4595 9.38927 21.366L0.619274 16.104C0.54512 16.0596 0.483739 15.9968 0.44112 15.9216C0.398501 15.8464 0.376099 15.7614 0.376099 15.675C0.376099 15.5886 0.398501 15.5036 0.44112 15.4285C0.483739 15.3533 0.54512 15.2904 0.619274 15.246L1.82127 14.525L9.90427 19.375L17.9873 14.525ZM17.9873 9.82502L19.1893 10.546C19.2634 10.5904 19.3248 10.6533 19.3674 10.7285C19.41 10.8036 19.4324 10.8886 19.4324 10.975C19.4324 11.0614 19.41 11.1464 19.3674 11.2216C19.3248 11.2968 19.2634 11.3596 19.1893 11.404L9.90427 16.975L0.619274 11.404C0.54512 11.3596 0.483739 11.2968 0.44112 11.2216C0.398501 11.1464 0.376099 11.0614 0.376099 10.975C0.376099 10.8886 0.398501 10.8036 0.44112 10.7285C0.483739 10.6533 0.54512 10.5904 0.619274 10.546L1.82127 9.82502L9.90427 14.675L17.9873 9.82502ZM10.4183 0.634021L19.1893 5.89602C19.2634 5.94041 19.3248 6.00327 19.3674 6.07846C19.41 6.15364 19.4324 6.23859 19.4324 6.32502C19.4324 6.41145 19.41 6.4964 19.3674 6.57158C19.3248 6.64677 19.2634 6.70963 19.1893 6.75402L9.90427 12.325L0.619274 6.75402C0.54512 6.70963 0.483739 6.64677 0.44112 6.57158C0.398501 6.4964 0.376099 6.41145 0.376099 6.32502C0.376099 6.23859 0.398501 6.15364 0.44112 6.07846C0.483739 6.00327 0.54512 5.94041 0.619274 5.89602L9.38927 0.634021C9.54481 0.540577 9.72283 0.491211 9.90427 0.491211C10.0857 0.491211 10.2637 0.540577 10.4193 0.634021H10.4183ZM9.90427 2.65702L3.79127 6.32502L9.90427 9.99302L16.0173 6.32502L9.90427 2.65702Z" fill="#1F4173"/>
</svg>
