<svg width="19" height="20" viewBox="0 0 19 20" fill="none" xmlns="http://www.w3.org/2000/svg">
<path d="M18.3708 18.407C18.3708 18.6722 18.2654 18.9266 18.0779 19.1141C17.8904 19.3017 17.636 19.407 17.3708 19.407H1.37079C1.10557 19.407 0.851218 19.3017 0.663682 19.1141C0.476146 18.9266 0.370789 18.6722 0.370789 18.407V7.89701C0.370683 7.74462 0.405406 7.59423 0.472305 7.45731C0.539203 7.32039 0.636509 7.20058 0.756789 7.10701L8.75679 0.88501C8.93233 0.748456 9.14839 0.674316 9.37079 0.674316C9.59319 0.674316 9.80925 0.748456 9.98479 0.88501L17.9848 7.10701C18.1051 7.20058 18.2024 7.32039 18.2693 7.45731C18.3362 7.59423 18.3709 7.74462 18.3708 7.89701V18.407ZM16.3708 17.407V8.38501L9.37079 2.94101L2.37079 8.38501V17.407H16.3708ZM4.37079 13.407H14.3708V15.407H4.37079V13.407Z" fill="#1F4173"/>
</svg>
