<svg width="20" height="19" viewBox="0 0 20 19" fill="none" xmlns="http://www.w3.org/2000/svg">
<path d="M17.5203 6.29712V2.29712H2.18699V6.29712H17.5203ZM17.5203 8.29712H2.18699V16.2971H17.5203V8.29712ZM1.22866 0.297119H18.4787C18.7328 0.297119 18.9766 0.402476 19.1563 0.590012C19.336 0.777549 19.437 1.0319 19.437 1.29712V17.2971C19.437 17.5623 19.336 17.8167 19.1563 18.0042C18.9766 18.1918 18.7328 18.2971 18.4787 18.2971H1.22866C0.974492 18.2971 0.730736 18.1918 0.551014 18.0042C0.371292 17.8167 0.270325 17.5623 0.270325 17.2971V1.29712C0.270325 1.0319 0.371292 0.777549 0.551014 0.590012C0.730736 0.402476 0.974492 0.297119 1.22866 0.297119ZM3.14532 9.29712H6.02032V14.2971H3.14532V9.29712ZM3.14532 3.29712H5.06199V5.29712H3.14532V3.29712ZM6.97866 3.29712H8.89532V5.29712H6.97866V3.29712Z" fill="#1F4173"/>
</svg>
